{"title":"Mystery.Of.The.Wax.Museum.1933.HQ.2ColorFix.720p.x264.AC3.[FrOnk","uid":11978427,"size":2692484832,"categoryP":"video","categoryS":"hd___movies","magnet":"?xt=urn:btih:fb33fd55374642d46d3cd5b2ef1256eba53108df&amp;dn=Mystery.Of.The.Wax.Museum.1933.HQ.2ColorFix.720p.x264.AC3.%5BFrOnk&amp;tr=udp%3A%2F%2Ftracker.openbittorrent.com%3A80&amp;tr=udp%3A%2F%2Fopen.demonii.com%3A1337&amp;tr=udp%3A%2F%2Ftracker.coppersurfer.tk%3A6969&amp;tr=udp%3A%2F%2Fexodus.desync.com%3A6969","seeders":0,"leechers":0,"uploader":"HDmEntEs","files":1,"time":1433107508,"description":"Mystery.Of.The.Wax.Museum.1933.HQ.2ColorFix.720p.x264.AC3.[FrOnkY].mkv\n\n\nFormat                                   : Matroska\nFormat version                           : Version 4 / Version 2\nFile size                                : 2.51 GiB\nDuration                                 : 1h 17mn\nOverall bit rate                         : 4 643 Kbps\nWriting application                      : mkvmerge v6.9.1 ('Blue Panther') 32bit built on Apr 18 2014 18:15:44\nWriting library                          : libebml v1.3.0 + libmatroska v1.4.1\nAttachements                             : MysteryWaxMuseum1.jpg / MysteryWaxMuseum2.jpg...\n\nVideo\nID                                       : 1\nFormat                                   : AVC\nFormat/Info                              : Advanced Video Codec\nFormat profile                           : High L4.1\nFormat settings, CABAC                   : Yes\nFormat settings, ReFrames                : 11 frames\nCodec ID                                 : V_MPEG4/ISO/AVC\nDuration                                 : 1h 17mn\nBit rate                                 : 4 444 Kbps\nWidth                                    : 964 pixels\nHeight                                   : 720 pixels\nDisplay aspect ratio                     : 4:3\nFrame rate mode                          : Constant\nFrame rate                               : 23.976 fps\nColor space                              : YUV\nChroma subsampling                       : 4:2:0\nBit depth                                : 8 bits\nScan type                                : Progressive\nBits/(Pixel*Frame)                       : 0.267\nStream size                              : 2.35 GiB (94%)\nWriting library                          : x264 core 142 r2389 956c8d8\nLanguage                                 : English\nDefault                                  : Yes\nForced                                   : No\n\nAudio\nID                                       : 2\nFormat                                   : AC-3\nFormat/Info                              : Audio Coding 3\nMode extension                           : CM (complete main)\nFormat settings, Endianness              : Big\nCodec ID                                 : A_AC3\nDuration                                 : 1h 17mn\nBit rate mode                            : Constant\nBit rate                                 : 192 Kbps\nChannel(s)                               : 2 channels\nChannel positions                        : Front: L R\nSampling rate                            : 48.0 KHz\nBit depth                                : 16 bits\nStream size                              : 106 MiB (4%)\nLanguage                                 : English\nDefault                                  : Yes\nForced                                   : No\n\nText #1\nID                                       : 3\nFormat                                   : UTF-8\nCodec ID                                 : S_TEXT/UTF8\nCodec ID/Info                            : UTF-8 Plain Text\nLanguage                                 : Spanish\nDefault                                  : No\nForced                                   : No\n\nText #2\nID                                       : 4\nFormat                                   : UTF-8\nCodec ID                                 : S_TEXT/UTF8\nCodec ID/Info                            : UTF-8 Plain Text\nLanguage                                 : Spanish\nDefault                                  : No\nForced                                   : No\n\nText #3\nID                                       : 5\nFormat                                   : UTF-8\nCodec ID                                 : S_TEXT/UTF8\nCodec ID/Info                            : UTF-8 Plain Text\nLanguage                                 : English\nDefault                                  : No\nForced                                   : No\n\nText #4\nID                                       : 6\nFormat                                   : UTF-8\nCodec ID                                 : S_TEXT/UTF8\nCodec ID/Info                            : UTF-8 Plain Text\nLanguage                                 : French\nDefault                                  : No\nForced                                   : No\n\nText #5\nID                                       : 7\nFormat                                   : UTF-8\nCodec ID                                 : S_TEXT/UTF8\nCodec ID/Info                            : UTF-8 Plain Text\nLanguage                                 : Portuguese\nDefault                                  : No\nForced                                   : No\n\nMenu\n00:00:00.000                             : en:Chapter 01\n00:00:35.500                             : en:Chapter 02\n00:05:28.234                             : en:Chapter 03\n00:10:21.001                             : en:Chapter 04\n00:12:02.168                             : en:Chapter 05\n00:16:17.502                             : en:Chapter 06\n00:19:05.502                             : en:Chapter 07\n00:20:54.002                             : en:Chapter 08\n00:23:09.102                             : en:Chapter 09\n00:26:54.003                             : en:Chapter 10\n00:30:50.571                             : en:Chapter 11\n00:34:27.505                             : en:Chapter 12\n00:38:20.205                             : en:Chapter 13\n00:40:13.506                             : en:Chapter 14\n00:43:06.406                             : en:Chapter 15\n00:46:47.507                             : en:Chapter 16\n00:49:28.241                             : en:Chapter 17\n00:52:27.275                             : en:Chapter 18\n00:56:57.008                             : en:Chapter 19\n01:01:17.008                             : en:Chapter 20\n01:04:55.408                             : en:Chapter 21\n01:08:06.875                             : en:Chapter 22\n01:10:19.242                             : en:Chapter 23\n01:12:04.076                             : en:Chapter 24\n01:16:05.410                             : en:Chapter 25\n\n\nSD - HQ\n &lt;a href=&quot;\nhttp://i.imgur.com/gfjknJW.png&quot; rel=&quot;nofollow&quot; target=&quot;_NEW&quot;&gt;\nhttp://i.imgur.com/gfjknJW.png&lt;/a&gt; &lt;a href=&quot;\nhttp://i.imgur.com/RNf5LcN.jpg&quot; rel=&quot;nofollow&quot; target=&quot;_NEW&quot;&gt;\nhttp://i.imgur.com/RNf5LcN.jpg&lt;/a&gt;","torrent":{"xt":"urn:btih:fb33fd55374642d46d3cd5b2ef1256eba53108df","amp;dn":"Mystery.Of.The.Wax.Museum.1933.HQ.2ColorFix.720p.x264.AC3.%5BFrOnk","amp;tr":["udp%3A%2F%2Ftracker.openbittorrent.com%3A80","udp%3A%2F%2Fopen.demonii.com%3A1337","udp%3A%2F%2Ftracker.coppersurfer.tk%3A6969","udp%3A%2F%2Fexodus.desync.com%3A6969"],"infoHash":"fb33fd55374642d46d3cd5b2ef1256eba53108df","infoHashBuffer":{"type":"Buffer","data":[251,51,253,85,55,70,66,212,109,60,213,178,239,18,86,235,165,49,8,223]},"announce":[],"urlList":[]}}